HIERARCHY
ROOT SpineBase
{
  OFFSET 0.000000 0.000000 0.000000
  CHANNELS 6 Xposition Yposition Zposition Zrotation Xrotation Yrotation
  JOINT SpineMid
  {
    OFFSET 0.000000 32.545978 0.000000
    CHANNELS 3 Zrotation Xrotation Yrotation
    JOINT SpineShoulder
    {
      OFFSET 0.856883 23.999059 -1.163988
      CHANNELS 3 Zrotation Xrotation Yrotation
      JOINT Neck
      {
        OFFSET 0.519088 7.928975 -0.789388
        CHANNELS 3 Zrotation Xrotation Yrotation
        JOINT Head
        {
          OFFSET 1.885961 10.722609 6.209617
          CHANNELS 3 Zrotation Xrotation Yrotation
          End Site
          {
            OFFSET 0 0 0
          }
        }
      }
      JOINT ShoulderLeft
      {
        OFFSET -4.558421 -3.989291 -16.807748
        CHANNELS 3 Zrotation Xrotation Yrotation
        JOINT ElbowLeft
        {
          OFFSET -2.402731 -26.358543 -8.463556
          CHANNELS 3 Zrotation Xrotation Yrotation
          JOINT WristLeft
          {
            OFFSET 4.658301 -20.195244 -1.778901
            CHANNELS 3 Zrotation Xrotation Yrotation
            JOINT HandLeft
            {
              OFFSET -0.174970 -8.830356 -0.900676
              CHANNELS 3 Zrotation Xrotation Yrotation
              JOINT HandTipLeft
              {
                OFFSET 1.295067 -8.645702 1.708293
                CHANNELS 3 Zrotation Xrotation Yrotation
                End Site
                {
                  OFFSET 0 0 0
                }
              }
              JOINT ThumbLeft
              {
                OFFSET -4.012428 -2.216593 1.106270
                CHANNELS 3 Zrotation Xrotation Yrotation
                End Site
                {
                  OFFSET 0 0 0
                }
              }
            }
          }
        }
      }
      JOINT ShoulderRight
      {
        OFFSET 6.691153 -6.286321 14.024138
        CHANNELS 3 Zrotation Xrotation Yrotation
        JOINT ElbowRight
        {
          OFFSET 0.844527 -23.641049 6.069676
          CHANNELS 3 Zrotation Xrotation Yrotation
          JOINT WristRight
          {
            OFFSET -4.951410 -22.193981 0.612855
            CHANNELS 3 Zrotation Xrotation Yrotation
            JOINT HandRight
            {
              OFFSET 1.953081 -14.902302 8.092966
              CHANNELS 3 Zrotation Xrotation Yrotation
              JOINT HandTipRight
              {
                OFFSET 0.836086 -2.040392 0.023875
                CHANNELS 3 Zrotation Xrotation Yrotation
                End Site
                {
                  OFFSET 0 0 0
                }
              }
              JOINT ThumbRight
              {
                OFFSET -1.199659 0.840021 -4.556187
                CHANNELS 3 Zrotation Xrotation Yrotation
                End Site
                {
                  OFFSET 0 0 0
                }
              }
            }
          }
        }
      }
    }
  }
  JOINT HipLeft
  {
    OFFSET -1.710348 1.502188 -9.845558
    CHANNELS 3 Zrotation Xrotation Yrotation
    JOINT KneeLeft
    {
      OFFSET -9.797611 -36.183370 -5.259669
      CHANNELS 3 Zrotation Xrotation Yrotation
      JOINT AnkleLeft
      {
        OFFSET -7.526399 -38.959327 5.681123
        CHANNELS 3 Zrotation Xrotation Yrotation
        JOINT FootLeft
        {
          OFFSET 4.375734 -7.480086 -2.213420
          CHANNELS 3 Zrotation Xrotation Yrotation
          End Site
          {
            OFFSET 0 0 0
          }
        }
      }
    }
  }
  JOINT HipRight
  {
    OFFSET 3.262775 0.335711 2.638715
    CHANNELS 3 Zrotation Xrotation Yrotation
    JOINT KneeRight
    {
      OFFSET -5.309250 -41.084740 6.817431
      CHANNELS 3 Zrotation Xrotation Yrotation
      JOINT AnkleRight
      {
        OFFSET -12.318649 -36.014046 4.801666
        CHANNELS 3 Zrotation Xrotation Yrotation
        JOINT FootRight
        {
          OFFSET 4.105609 -7.595319 -4.481592
          CHANNELS 3 Zrotation Xrotation Yrotation
          End Site
          {
            OFFSET 0 0 0
          }
        }
      }
    }
  }
}
MOTION
Frames: 8
Frame Time: 0.033333
-74.168559 85.999085 320.056264 2.221837 -1.768212 -58.610148 0.448105 1.681677 58.837011 1.071792 0.373499 0.291325 -13.109298 -15.332924 6.493147 0.000000 0.000000 0.000000 -8.858599 3.881086 0.636037 4.347352 5.165421 0.945298 8.326108 -3.943598 -1.922422 -2.095041 2.436806 3.127627 0.000000 0.000000 0.000000 0.000000 0.000000 0.000000 24.093693 14.398558 3.651894 18.100836 46.838364 -46.579604 -37.268274 40.087265 14.602163 -31.401100 -20.323686 -12.257018 0.000000 0.000000 0.000000 0.000000 0.000000 0.000000 0.074481 -2.840770 59.637297 -0.647234 4.164795 -1.165518 -10.212716 3.811168 6.919681 0.000000 0.000000 0.000000 -0.922130 6.552539 59.450756 -10.125612 -9.423194 0.730176 -14.091576 -4.611149 1.853596 0.000000 0.000000 0.000000
-74.087147 85.915627 320.018412 1.966225 -1.959486 -54.899468 0.416916 1.609350 55.110729 1.013262 0.403177 0.267546 -11.964408 -17.516163 6.552235 0.000000 0.000000 0.000000 -9.066294 4.282138 0.887489 4.868298 7.063983 1.333770 7.049873 -3.546631 -2.383321 0.487867 3.319554 3.853637 0.000000 0.000000 0.000000 0.000000 0.000000 0.000000 33.847582 20.190712 3.064521 3.013682 50.046478 -51.735577 -36.139987 38.686001 4.400276 -36.015779 -26.702392 -14.436117 0.000000 0.000000 0.000000 0.000000 0.000000 0.000000 -0.222811 -2.238815 55.813552 -0.960183 4.014676 -1.100217 -5.863306 7.815856 8.010371 0.000000 0.000000 0.000000 0.202091 7.261076 55.826488 -8.155946 -10.294837 1.634929 -14.483809 -3.836094 -0.539266 0.000000 0.000000 0.000000
-74.034231 85.840912 319.966767 1.618615 -1.919498 -50.540927 0.232091 1.466557 50.715341 0.913967 0.449847 0.220233 -9.927818 -20.088127 6.388625 0.000000 0.000000 0.000000 -8.675452 3.999338 1.057645 4.527846 10.251292 2.064135 6.696527 -4.223418 -2.955016 2.123337 5.736491 4.687065 0.000000 0.000000 0.000000 0.000000 0.000000 0.000000 42.958288 25.614048 1.670715 -10.008422 52.389575 -56.665554 -33.307001 34.311986 -29.366967 -13.739270 -42.743601 24.216946 0.000000 0.000000 0.000000 0.000000 0.000000 0.000000 -0.198117 -1.606150 51.321626 -1.266093 3.709801 -0.986032 -5.556663 9.141689 8.723153 0.000000 0.000000 0.000000 1.306430 7.458717 51.459285 -5.297077 -11.473784 2.830225 -12.736031 2.544941 -0.749365 0.000000 0.000000 0.000000
-74.001230 85.801808 319.863516 0.928973 -1.796315 -45.869720 0.082537 1.320604 45.987870 0.850349 0.457963 0.163322 -7.357146 -22.652248 6.247061 0.000000 0.000000 0.000000 -8.453069 3.505005 1.433832 3.854219 13.509383 2.790349 6.771438 -7.065695 -3.382576 1.560983 10.532551 4.810561 0.000000 0.000000 0.000000 0.000000 0.000000 0.000000 50.471321 31.942329 -1.179248 -21.383800 52.999837 -60.310564 -30.846976 22.412449 -56.132446 1.750652 -42.094369 51.946787 0.000000 0.000000 0.000000 0.000000 0.000000 0.000000 0.327874 -0.375547 46.384570 -2.139353 3.049958 -0.746252 -5.772801 10.403813 9.609423 0.000000 0.000000 0.000000 2.336349 7.453813 46.693792 -1.997432 -12.738464 4.165007 -9.154727 12.806166 -0.346918 0.000000 0.000000 0.000000
-73.892412 85.733439 319.887623 0.108845 -1.684321 -41.193092 0.005272 1.216204 41.253840 0.811460 0.447697 0.108924 -5.052491 -24.367349 6.168141 0.000000 0.000000 0.000000 -8.468310 1.321963 1.972108 2.752212 17.725295 3.335004 7.119976 -8.871852 -3.788122 1.435209 12.289864 4.732019 0.000000 0.000000 0.000000 0.000000 0.000000 0.000000 56.939924 35.752754 -3.545664 -29.660803 52.225500 -62.170287 -32.222268 13.938588 -71.654729 5.965212 -39.934639 60.097826 0.000000 0.000000 0.000000 0.000000 0.000000 0.000000 1.138469 0.957752 41.396518 -3.066347 2.297470 -0.483246 -6.312143 11.642189 10.628194 0.000000 0.000000 0.000000 3.235939 7.103125 41.893678 1.166664 -13.551076 5.333447 -3.100864 29.419119 0.977270 0.000000 0.000000 0.000000
-73.703022 85.629913 319.985398 -0.779706 -1.721804 -37.028769 0.007654 1.151441 37.037611 0.804168 0.428837 0.063515 -3.142257 -25.772507 6.243272 0.000000 0.000000 0.000000 -8.807454 -1.131168 2.584497 1.558362 21.959141 3.963046 8.089892 -10.931127 -4.072958 0.115967 16.194374 4.760387 0.000000 0.000000 0.000000 0.000000 0.000000 0.000000 63.530026 40.250465 -7.268497 -31.420651 49.092649 -66.181710 -32.547663 7.957626 -73.046139 1.207106 -39.735627 54.365089 0.000000 0.000000 0.000000 0.000000 0.000000 0.000000 2.177884 2.408234 36.876907 -4.215881 1.533994 -0.230292 -7.136933 12.800092 11.843307 0.000000 0.000000 0.000000 4.315004 6.985683 37.641429 2.969512 -13.844003 5.981520 -0.452375 38.545683 1.410050 0.000000 0.000000 0.000000
-73.411812 85.489498 320.130885 -1.612241 -1.819212 -34.045150 0.105391 1.136435 34.009790 0.888471 0.936588 0.002391 -1.877360 -27.048397 6.343199 0.000000 0.000000 0.000000 -9.680506 -4.286933 3.156311 0.310054 24.047561 4.091508 9.256074 -11.435633 -4.012769 -0.716428 18.719108 4.595871 0.000000 0.000000 0.000000 0.000000 0.000000 0.000000 66.051208 42.717179 -9.088349 -26.054805 43.946704 -68.037887 -31.757877 14.366091 -65.512881 -2.122591 -43.948547 42.623913 0.000000 0.000000 0.000000 0.000000 0.000000 0.000000 3.424457 3.648408 33.562144 -5.568356 1.157056 -0.083664 -8.140208 13.344733 13.015904 0.000000 0.000000 0.000000 5.478491 6.856581 34.617962 3.263608 -13.447849 5.966290 -0.233380 43.028476 3.000938 0.000000 0.000000 0.000000
-73.016119 85.309457 320.351998 -2.257134 -2.026267 -32.801646 0.277979 1.180957 32.735217 0.921630 0.387733 0.023029 -1.411091 -26.598911 6.444828 0.000000 0.000000 0.000000 -10.660912 -6.396826 3.727212 -1.333499 24.408405 3.877724 10.263635 -12.416081 -3.738865 -2.453633 19.239844 3.591809 0.000000 0.000000 0.000000 0.000000 0.000000 0.000000 65.741954 44.152071 -10.654636 -13.888467 37.480545 -67.150029 -31.242571 27.403492 -42.301801 -8.797330 -46.882416 26.585737 0.000000 0.000000 0.000000 0.000000 0.000000 0.000000 4.459869 4.602496 32.068601 -6.812866 1.201610 -0.051559 -9.302643 13.299686 14.038000 0.000000 0.000000 0.000000 6.408275 6.897856 33.362106 2.142561 -12.577597 5.393414 -0.912983 42.828402 4.640225 0.000000 0.000000 0.000000
